<svg  xmlns="http://www.w3.org/2000/svg" width="260.37875864023147" height="311.84999999999997" viewBox="0 0 325.90514062752567 390.32952855083755" class="css-1j8o68f"><g id="SvgjsG11607" featurekey="nameFeature-0" fill="#000000"><path d="M2.36 25.16 c0 -2.72 0.72 -5.36 2.06 -7.66 c1.3 -2.24 3.2 -4.12 5.44 -5.46 c2.26 -1.34 4.92 -2.08 7.66 -2.08 c4.1 0 7.94 1.66 10.74 4.46 s4.46 6.64 4.46 10.74 c0 2.74 -0.74 5.4 -2.08 7.66 c-1.34 2.24 -3.22 4.14 -5.46 5.44 c-2.38 1.38 -4.94 2.06 -7.66 2.06 c-2.74 0 -5.36 -0.72 -7.66 -2.06 c-2.24 -1.3 -4.14 -3.2 -5.44 -5.44 c-1.34 -2.3 -2.06 -4.92 -2.06 -7.66 z M3.56 25.16 c0 3.78 1.52 7.28 4.1 9.86 s6.08 4.1 9.86 4.1 c2.5 0 4.86 -0.64 7.04 -1.92 c2.08 -1.2 3.82 -2.94 5.04 -5.02 c1.26 -2.1 1.92 -4.48 1.92 -7.02 c0 -2.5 -0.64 -4.86 -1.92 -7.04 c-1.22 -2.08 -2.96 -3.82 -5.04 -5.04 c-2.18 -1.28 -4.54 -1.92 -7.04 -1.92 c-2.54 0 -4.92 0.66 -7.02 1.92 c-2.08 1.22 -3.82 2.96 -5.02 5.04 c-1.28 2.18 -1.92 4.54 -1.92 7.04 z M45.877 10.440000000000001 l19.04 11.24 l0 -10.84 c0 -0.38 0.18 -0.56 0.56 -0.56 s0.56 0.18 0.56 0.56 l0 28.6 c0 0.38 -0.18 0.56 -0.56 0.56 s-0.56 -0.18 -0.56 -0.56 l0 -16.48 l-18.8 -11 l0 27.48 c0 0.38 -0.18 0.56 -0.56 0.56 c-0.4 0 -0.6 -0.18 -0.6 -0.56 l0 -28.6 c0 -0.38 0.14 -0.56 0.44 -0.56 c0.24 0 0.3 0.06 0.48 0.16 z M98.65100000000001 10.280000000000001 l21.32 0 c0.4 0 0.6 0.18 0.6 0.56 s-0.2 0.56 -0.6 0.56 l-10.04 0 l0 28.04 c0 0.38 -0.18 0.56 -0.56 0.56 c-0.4 0 -0.6 -0.18 -0.6 -0.56 l0 -28.04 l-10.12 0 c-0.38 0 -0.56 -0.18 -0.56 -0.56 s0.18 -0.56 0.56 -0.56 z M132.96800000000002 39.44 l0 -28.6 c0 -0.38 0.2 -0.56 0.6 -0.56 c0.38 0 0.56 0.18 0.56 0.56 l0 28.6 c0 0.38 -0.18 0.56 -0.56 0.56 c-0.4 0 -0.6 -0.18 -0.6 -0.56 z M158.56500000000003 10.36 l7.84 20.8 l7.8 -20.72 c0.1 -0.24 0.24 -0.36 0.42 -0.36 l0.3 0 c0.18 0 0.3 0.1 0.36 0.28 l10.92 29.04 c0.06 0.12 0.08 0.22 0.08 0.3 c0 0.24 -0.28 0.5 -0.68 0.5 c-0.18 0 -0.34 -0.14 -0.44 -0.4 l-10.4 -27.76 l-7.88 20.8 c-0.14 0.32 -0.18 0.44 -0.4 0.44 l-0.22 0 c-0.24 0 -0.32 -0.14 -0.42 -0.44 l-7.8 -20.8 l-10.44 27.6 c-0.1 0.3 -0.24 0.46 -0.38 0.46 c-0.4 0 -0.66 -0.22 -0.66 -0.44 c0 -0.1 0.02 -0.22 0.08 -0.34 l10.84 -28.88 c0.1 -0.24 0.26 -0.36 0.44 -0.36 l0.28 0 c0.16 0 0.28 0.1 0.36 0.28 z M198.622 10.3 l19.36 0 c0.4 0 0.6 0.18 0.6 0.56 s-0.2 0.56 -0.6 0.56 l-18.82 0 l0 16.74 l15.42 0 c0.42 0 0.64 0.2 0.64 0.6 c0 0.38 -0.22 0.56 -0.64 0.56 l-15.42 0 l0 9.56 l19.26 0 c0.4 0 0.6 0.18 0.6 0.56 s-0.2 0.56 -0.6 0.56 l-20 0 c-0.34 0 -0.4 -0.24 -0.4 -0.56 l0 -28.58 c0 -0.4 0.2 -0.56 0.6 -0.56 z"></path></g></svg>